{"title":"Chelsea S01E15 720p WEBRip x264-TheRival","uid":14877458,"size":505802713,"categoryP":"video","categoryS":"hd___tv_shows","magnet":"?xt=urn:btih:5cee5c5908735fd6ddf20c950f1505df604204de&amp;dn=Chelsea+S01E15+720p+WEBRip+x264-TheRival&amp;tr=udp%3A%2F%2Ftracker.leechers-paradise.org%3A6969&amp;tr=udp%3A%2F%2Fzer0day.ch%3A1337&amp;tr=udp%3A%2F%2Fopen.demonii.com%3A1337&amp;tr=udp%3A%2F%2Ftracker.coppersurfer.tk%3A6969&amp;tr=udp%3A%2F%2Fexodus.desync.com%3A6969","seeders":0,"leechers":1,"uploader":"TheRival","files":2,"time":1465600270,"description":"Screens: \nhttp://extraimago.com/image/aClS \nhttp://extraimago.com/image/aClq \nhttp://extraimago.com/image/aClL\r\n\r\nVideo\r\nID : 1\r\nFormat : AVC\r\nFormat/Info : Advanced Video Codec\r\nFormat profile :   \r\nFormat settings, CABAC : Yes\r\nFormat settings, ReFrames : 1 frame\r\nFormat settings, GOP : M=3, N=24\r\nMuxing mode : Container   \r\nCodec ID : avc1\r\nCodec ID/Info : Advanced Video Coding\r\nDuration : 32mn 4s\r\nBit rate mode : Variable\r\nBit rate : 1 968 Kbps\r\nMaximum bit rate : 3 000 Kbps\r\nWidth : 1 280 pixels\r\nHeight : 720 pixels\r\nDisplay aspect ratio : 16:9\r\nFrame rate mode : Constant\r\nFrame rate : 29.970 (30000/1001) fps\r\nColor space : YUV\r\nChroma subsampling : 4:2:0\r\nBit depth : 8 bits\r\nScan type : Progressive\r\nBits/(Pixel*Frame) : 0.071\r\nStream size : 451 MiB (94%)\r\nLanguage : English\r\n\r\nAudio\r\nID : 2\r\nFormat : AAC\r\nFormat/Info : Advanced Audio Codec\r\nFormat profile : LC\r\nCodec ID : 40\r\nDuration : 32mn 4s\r\nBit rate mode : Constant\r\nBit rate : 128 Kbps\r\nChannel(s) : 2 channels\r\nChannel positions : Front: L R\r\nSampling rate : 48.0 KHz\r\nFrame rate : 46.875 fps (1024 spf)\r\nCompression mode : Lossy\r\nStream size : 29.4 MiB (6%)\r\nTitle : Stereo\r\nLanguage : English\r\nDefault : Yes\r\nAlternate group : 1","torrent":{"xt":"urn:btih:5cee5c5908735fd6ddf20c950f1505df604204de","amp;dn":"Chelsea+S01E15+720p+WEBRip+x264-TheRival","amp;tr":["udp%3A%2F%2Ftracker.leechers-paradise.org%3A6969","udp%3A%2F%2Fzer0day.ch%3A1337","udp%3A%2F%2Fopen.demonii.com%3A1337","udp%3A%2F%2Ftracker.coppersurfer.tk%3A6969","udp%3A%2F%2Fexodus.desync.com%3A6969"],"infoHash":"5cee5c5908735fd6ddf20c950f1505df604204de","infoHashBuffer":{"type":"Buffer","data":[92,238,92,89,8,115,95,214,221,242,12,149,15,21,5,223,96,66,4,222]},"announce":[],"urlList":[]}}